<svg width="14" height="14" viewBox="0 0 14 14" fill="none" xmlns="http://www.w3.org/2000/svg">
<path d="M4.30579 0.359375H10.0213C12.1986 0.359375 13.9677 2.12846 13.9677 4.30579V10.0213C13.9677 11.0679 13.5519 12.0717 12.8118 12.8118C12.0717 13.5519 11.0679 13.9677 10.0213 13.9677H4.30579C2.12846 13.9677 0.359375 12.1986 0.359375 10.0213V4.30579C0.359375 3.25914 0.775157 2.25535 1.51525 1.51525C2.25535 0.775157 3.25914 0.359375 4.30579 0.359375ZM4.16971 1.72021C3.52006 1.72021 2.89702 1.97828 2.43765 2.43765C1.97828 2.89702 1.72021 3.52006 1.72021 4.16971V10.1574C1.72021 11.5114 2.81568 12.6069 4.16971 12.6069H10.1574C10.807 12.6069 11.4301 12.3488 11.8894 11.8894C12.3488 11.4301 12.6069 10.807 12.6069 10.1574V4.16971C12.6069 2.81568 11.5114 1.72021 10.1574 1.72021H4.16971ZM10.7357 2.74083C10.9613 2.74083 11.1776 2.83044 11.3371 2.98995C11.4966 3.14945 11.5863 3.36578 11.5863 3.59135C11.5863 3.81693 11.4966 4.03326 11.3371 4.19276C11.1776 4.35227 10.9613 4.44188 10.7357 4.44188C10.5102 4.44188 10.2938 4.35227 10.1343 4.19276C9.97482 4.03326 9.88521 3.81693 9.88521 3.59135C9.88521 3.36578 9.97482 3.14945 10.1343 2.98995C10.2938 2.83044 10.5102 2.74083 10.7357 2.74083ZM7.16354 3.76146C8.06583 3.76146 8.93116 4.11989 9.56918 4.75791C10.2072 5.39592 10.5656 6.26125 10.5656 7.16354C10.5656 8.06583 10.2072 8.93116 9.56918 9.56918C8.93116 10.2072 8.06583 10.5656 7.16354 10.5656C6.26125 10.5656 5.39592 10.2072 4.75791 9.56918C4.11989 8.93116 3.76146 8.06583 3.76146 7.16354C3.76146 6.26125 4.11989 5.39592 4.75791 4.75791C5.39592 4.11989 6.26125 3.76146 7.16354 3.76146ZM7.16354 5.12229C6.62217 5.12229 6.10297 5.33735 5.72016 5.72016C5.33735 6.10297 5.12229 6.62217 5.12229 7.16354C5.12229 7.70492 5.33735 8.22412 5.72016 8.60692C6.10297 8.98973 6.62217 9.20479 7.16354 9.20479C7.70492 9.20479 8.22412 8.98973 8.60692 8.60692C8.98973 8.22412 9.20479 7.70492 9.20479 7.16354C9.20479 6.62217 8.98973 6.10297 8.60692 5.72016C8.22412 5.33735 7.70492 5.12229 7.16354 5.12229Z" fill="white"/>
</svg>
