<svg width="12" height="11" viewBox="0 0 12 11" fill="none" xmlns="http://www.w3.org/2000/svg">
<path d="M3.1941 10.9257V4.04041H0.860346L0.860346 10.9257H3.1941ZM2.02752 3.09978C2.84134 3.09978 3.34791 2.57107 3.34791 1.91035C3.33274 1.23474 2.84137 0.720703 2.04297 0.720703C1.24468 0.720703 0.722656 1.23475 0.722656 1.91035C0.722656 2.5711 1.2291 3.09978 2.01229 3.09978H2.02745H2.02752ZM4.48582 10.9257H6.81957V7.08063C6.81957 6.87484 6.83473 6.66927 6.89636 6.52217C7.06507 6.11102 7.44907 5.68518 8.09375 5.68518C8.93824 5.68518 9.27608 6.31659 9.27608 7.24218V10.9257H11.6097V6.9777C11.6097 4.8628 10.4583 3.87877 8.92287 3.87877C7.6639 3.87877 7.11113 4.56885 6.80404 5.03886H6.81962V4.04027H4.48587C4.5165 4.68635 4.48587 10.9256 4.48587 10.9256L4.48582 10.9257Z" fill="white"/>
</svg>
