<svg width="14" height="11" viewBox="0 0 14 11" fill="none" xmlns="http://www.w3.org/2000/svg">
<path d="M13.1525 1.64522C12.6614 1.85246 12.1406 1.9885 11.6072 2.0488C12.1628 1.7316 12.5893 1.22929 12.7902 0.630802C12.2621 0.929357 11.6843 1.13971 11.0818 1.25277C10.591 0.754658 9.89184 0.443359 9.118 0.443359C7.63219 0.443359 6.42755 1.59095 6.42755 3.00636C6.42755 3.20728 6.45137 3.40287 6.49721 3.59051C4.26127 3.48358 2.27889 2.46321 0.95193 0.912528C0.720396 1.29107 0.587725 1.7314 0.587725 2.20106C0.587725 3.0903 1.06273 3.87477 1.78458 4.33442C1.35734 4.32168 0.939507 4.21174 0.565955 4.0138C0.565802 4.02454 0.565802 4.03528 0.565802 4.04606C0.565802 5.28789 1.49317 6.32383 2.72388 6.55929C2.3277 6.66194 1.91214 6.67696 1.50894 6.60321C1.85127 7.62148 2.84487 8.36247 4.02211 8.38321C3.10135 9.07061 1.94128 9.48039 0.680851 9.48039C0.46366 9.48039 0.249543 9.46824 0.0390625 9.44457C1.22967 10.1718 2.64382 10.5961 4.16313 10.5961C9.11175 10.5961 11.8178 6.69056 11.8178 3.30361C11.8178 3.19244 11.8152 3.08191 11.81 2.97201C12.3367 2.60927 12.7913 2.15997 13.1525 1.64522Z" fill="white"/>
</svg>
